<svg width="108" height="28" viewBox="0 0 108 28" fill="none" xmlns="http://www.w3.org/2000/svg">
<path d="M27.7734 15.5664C27.7734 13.5898 28.2148 12.0156 29.0977 10.8438C29.9883 9.67188 31.2031 9.08594 32.7422 9.08594C33.9766 9.08594 34.9961 9.54688 35.8008 10.4688V4H39.1992V22H36.1406L35.9766 20.6523C35.1328 21.707 34.0469 22.2344 32.7188 22.2344C31.2266 22.2344 30.0273 21.6484 29.1211 20.4766C28.2227 19.2969 27.7734 17.6602 27.7734 15.5664ZM31.1602 15.8125C31.1602 17 31.3672 17.9102 31.7812 18.543C32.1953 19.1758 32.7969 19.4922 33.5859 19.4922C34.6328 19.4922 35.3711 19.0508 35.8008 18.168V13.1641C35.3789 12.2812 34.6484 11.8398 33.6094 11.8398C31.9766 11.8398 31.1602 13.1641 31.1602 15.8125ZM54.45 15.7773C54.45 17.8086 54.0164 19.3945 53.1492 20.5352C52.282 21.668 51.0711 22.2344 49.5164 22.2344C48.1414 22.2344 47.0437 21.707 46.2234 20.6523L46.0711 22H43.0242V4H46.4109V10.457C47.1922 9.54297 48.2195 9.08594 49.493 9.08594C51.0398 9.08594 52.2508 9.65625 53.1258 10.7969C54.0086 11.9297 54.45 13.5273 54.45 15.5898V15.7773ZM51.0633 15.5312C51.0633 14.25 50.8602 13.3164 50.4539 12.7305C50.0477 12.1367 49.4422 11.8398 48.6375 11.8398C47.5594 11.8398 46.8172 12.2812 46.4109 13.1641V18.168C46.825 19.0586 47.575 19.5039 48.6609 19.5039C49.7547 19.5039 50.4734 18.9648 50.8172 17.8867C50.9812 17.3711 51.0633 16.5859 51.0633 15.5312ZM61.3219 22H57.9234V4H61.3219V22ZM78.9398 16.3164C78.807 18.1523 78.1273 19.5977 76.9008 20.6523C75.682 21.707 74.0727 22.2344 72.0727 22.2344C69.8852 22.2344 68.1625 21.5 66.9047 20.0312C65.6547 18.5547 65.0297 16.5312 65.0297 13.9609V12.918C65.0297 11.2773 65.3187 9.83203 65.8969 8.58203C66.475 7.33203 67.2992 6.375 68.3695 5.71094C69.4477 5.03906 70.6977 4.70312 72.1195 4.70312C74.0883 4.70312 75.6742 5.23047 76.8773 6.28516C78.0805 7.33984 78.7758 8.82031 78.9633 10.7266H75.4477C75.3617 9.625 75.0531 8.82812 74.5219 8.33594C73.9984 7.83594 73.1977 7.58594 72.1195 7.58594C70.9477 7.58594 70.0687 8.00781 69.4828 8.85156C68.9047 9.6875 68.6078 10.9883 68.5922 12.7539V14.043C68.5922 15.8867 68.8695 17.2344 69.4242 18.0859C69.9867 18.9375 70.8695 19.3633 72.0727 19.3633C73.1586 19.3633 73.9672 19.1172 74.4984 18.625C75.0375 18.125 75.3461 17.3555 75.4242 16.3164H78.9398ZM81.6984 15.543C81.6984 14.2852 81.9406 13.1641 82.425 12.1797C82.9094 11.1953 83.6047 10.4336 84.5109 9.89453C85.425 9.35547 86.4836 9.08594 87.6867 9.08594C89.3977 9.08594 90.7922 9.60938 91.8703 10.6562C92.9562 11.7031 93.5617 13.125 93.6867 14.9219L93.7102 15.7891C93.7102 17.7344 93.1672 19.2969 92.0812 20.4766C90.9953 21.6484 89.5383 22.2344 87.7102 22.2344C85.882 22.2344 84.4211 21.6484 83.3273 20.4766C82.2414 19.3047 81.6984 17.7109 81.6984 15.6953V15.543ZM85.0852 15.7891C85.0852 16.9922 85.3117 17.9141 85.7648 18.5547C86.218 19.1875 86.8664 19.5039 87.7102 19.5039C88.5305 19.5039 89.1711 19.1914 89.632 18.5664C90.093 17.9336 90.3234 16.9258 90.3234 15.543C90.3234 14.3633 90.093 13.4492 89.632 12.8008C89.1711 12.1523 88.5227 11.8281 87.6867 11.8281C86.8586 11.8281 86.218 12.1523 85.7648 12.8008C85.3117 13.4414 85.0852 14.4375 85.0852 15.7891ZM101.555 17.8633L103.91 9.32031H107.449L103.172 22H99.9375L95.6602 9.32031H99.1992L101.555 17.8633Z" fill="#444444"/>
<circle cx="12.5" cy="14.5" r="12.5" fill="#D37157"/>
</svg>
